<?xml version="1.0" encoding="UTF-8" standalone="no"?>
<!-- Created with Inkscape (http://www.inkscape.org/) -->

<svg
   xmlns:osb="http://www.openswatchbook.org/uri/2009/osb"
   xmlns:dc="http://purl.org/dc/elements/1.1/"
   xmlns:cc="http://creativecommons.org/ns#"
   xmlns:rdf="http://www.w3.org/1999/02/22-rdf-syntax-ns#"
   xmlns:svg="http://www.w3.org/2000/svg"
   xmlns="http://www.w3.org/2000/svg"
   xmlns:xlink="http://www.w3.org/1999/xlink"
   xmlns:sodipodi="http://sodipodi.sourceforge.net/DTD/sodipodi-0.dtd"
   xmlns:inkscape="http://www.inkscape.org/namespaces/inkscape"
   width="256"
   height="256"
   viewBox="0 0 67.733332 67.733335"
   version="1.1"
   id="svg8"
   inkscape:version="0.92.4 (5da689c313, 2019-01-14)"
   sodipodi:docname="icon_v9.svg"
   enable-background="new"
   inkscape:export-filename="D:\8_AndroidStudioProjects\sunset_var2.png"
   inkscape:export-xdpi="192"
   inkscape:export-ydpi="192">
  <defs
     id="defs2">
    <linearGradient
       id="linearGradient10718"
       osb:paint="solid">
      <stop
         style="stop-color:#cec8e5;stop-opacity:1;"
         offset="0"
         id="stop10716" />
    </linearGradient>
    <linearGradient
       gradientTransform="translate(0,-229.26665)"
       inkscape:collect="always"
       xlink:href="#linearGradient833"
       id="linearGradient835"
       x1="34.687855"
       y1="229.05634"
       x2="34.687855"
       y2="297"
       gradientUnits="userSpaceOnUse" />
    <linearGradient
       inkscape:collect="always"
       id="linearGradient833">
      <stop
         style="stop-color:#170341;stop-opacity:1"
         offset="0"
         id="stop829" />
      <stop
         style="stop-color:#7c387c;stop-opacity:1"
         offset="1"
         id="stop831" />
    </linearGradient>
    <filter
       inkscape:collect="always"
       style="color-interpolation-filters:sRGB"
       id="filter1514">
      <feBlend
         inkscape:collect="always"
         mode="luminosity"
         in2="BackgroundImage"
         id="feBlend1516" />
    </filter>
    <filter
       inkscape:collect="always"
       style="color-interpolation-filters:sRGB"
       id="filter2006"
       x="-0.096040967"
       width="1.1920819"
       y="-0.095959068"
       height="1.1919181">
      <feGaussianBlur
         inkscape:collect="always"
         stdDeviation="7.3967648"
         id="feGaussianBlur2008" />
      <feBlend
         inkscape:collect="always"
         mode="darken"
         in2="BackgroundImage"
         id="feBlend2010" />
    </filter>
    <filter
       inkscape:menu-tooltip="Adds a turbulent transparency which displaces pixels at the same time"
       inkscape:menu="Overlays"
       inkscape:label="Rough Transparency"
       style="color-interpolation-filters:sRGB;"
       id="filter2093">
      <feTurbulence
         result="result3"
         baseFrequency="0.3"
         type="fractalNoise"
         seed="0"
         numOctaves="3"
         id="feTurbulence2073" />
      <feGaussianBlur
         stdDeviation="1.5"
         result="result91"
         id="feGaussianBlur2075" />
      <feDisplacementMap
         result="fbSourceGraphic"
         in="SourceGraphic"
         xChannelSelector="R"
         yChannelSelector="G"
         scale="30"
         in2="result91"
         id="feDisplacementMap2077" />
      <feColorMatrix
         type="luminanceToAlpha"
         in="fbSourceGraphic"
         result="result0"
         id="feColorMatrix2079" />
      <feColorMatrix
         result="result2"
         values="1 0 0 0 0 0 1 0 0 0 0 0 1 0 0 0 0 0 1 0 "
         id="feColorMatrix2081" />
      <feComposite
         in2="result2"
         operator="over"
         in="result3"
         result="result4"
         id="feComposite2083" />
      <feGaussianBlur
         stdDeviation="2"
         result="result5"
         id="feGaussianBlur2085" />
      <feDisplacementMap
         scale="100"
         xChannelSelector="R"
         in="result5"
         in2="result3"
         yChannelSelector="G"
         id="feDisplacementMap2087" />
      <feColorMatrix
         values="1 0 0 0 0 0 1 0 0 0 0 0 1 0 0 0 0 0 6.5 -4.5 "
         result="result92"
         id="feColorMatrix2089" />
      <feComposite
         in="fbSourceGraphic"
         operator="out"
         in2="result92"
         id="feComposite2091" />
    </filter>
    <filter
       inkscape:collect="always"
       style="color-interpolation-filters:sRGB"
       id="filter3637-5">
      <feBlend
         inkscape:collect="always"
         mode="luminosity"
         in2="BackgroundImage"
         id="feBlend3639-7" />
    </filter>
    <filter
       inkscape:collect="always"
       style="color-interpolation-filters:sRGB"
       id="filter3809">
      <feBlend
         inkscape:collect="always"
         mode="darken"
         in2="BackgroundImage"
         id="feBlend3811" />
    </filter>
  </defs>
  <sodipodi:namedview
     id="base"
     pagecolor="#ffffff"
     bordercolor="#666666"
     borderopacity="1.0"
     inkscape:pageopacity="0.0"
     inkscape:pageshadow="2"
     inkscape:zoom="2"
     inkscape:cx="75.70588"
     inkscape:cy="99.369762"
     inkscape:document-units="mm"
     inkscape:current-layer="layer5"
     showgrid="false"
     units="px"
     inkscape:window-width="1920"
     inkscape:window-height="1009"
     inkscape:window-x="1912"
     inkscape:window-y="-8"
     inkscape:window-maximized="1"
     inkscape:snap-center="true"
     inkscape:snap-others="true"
     showguides="false" />
  <metadata
     id="metadata5">
    <rdf:RDF>
      <cc:Work
         rdf:about="">
        <dc:format>image/svg+xml</dc:format>
        <dc:type
           rdf:resource="http://purl.org/dc/dcmitype/StillImage" />
        <dc:title></dc:title>
      </cc:Work>
    </rdf:RDF>
  </metadata>
  <g
     inkscape:groupmode="layer"
     id="layer2"
     inkscape:label="Background"
     style="display:inline">
    <path
       inkscape:connector-curvature="0"
       style="opacity:1;fill:url(#linearGradient835);fill-opacity:1;stroke:none;stroke-width:1.24587798;stroke-linecap:square;stroke-linejoin:miter;stroke-miterlimit:0;stroke-dasharray:none;stroke-dashoffset:0;stroke-opacity:1;paint-order:markers fill stroke"
       d="M 0,2.5333333e-6 H 67.733331 V 67.733333 H 0 Z"
       id="rect817" />
  </g>
  <g
     inkscape:label="Logo"
     inkscape:groupmode="layer"
     id="layer1"
     transform="translate(0,-229.26665)"
     style="display:inline;opacity:1;filter:url(#filter1514)">
    <path
       style="display:inline;opacity:0.65;fill:#1d1d1d;fill-opacity:1;stroke:none;stroke-width:1.43499994;stroke-linecap:square;stroke-linejoin:miter;stroke-miterlimit:0;stroke-dasharray:none;stroke-dashoffset:0;stroke-opacity:0;paint-order:stroke fill markers;filter:url(#filter2006)"
       d="m 126.67578,35.667969 a 92.499999,92.499999 0 0 1 5.82227,0.07422 92.500003,92.500003 0 0 0 -5.82227,-0.07422 z m -3.54687,0.130859 a 92.500003,92.500003 0 0 0 -5.52344,0.482422 92.499999,92.499999 0 0 1 5.52344,-0.482422 z m 12.64843,0.150391 a 92.499999,92.499999 0 0 1 6.05274,0.6875 92.500003,92.500003 0 0 0 -6.05274,-0.6875 z m -21.99609,0.859375 a 92.500003,92.500003 0 0 0 -5.125,0.970703 92.499999,92.499999 0 0 1 5.125,-0.970703 z m 31.0293,0.316406 a 92.499999,92.499999 0 0 1 6.19726,1.339844 92.500003,92.500003 0 0 0 -6.19726,-1.339844 z m -40.22657,1.640625 a 92.500003,92.500003 0 0 0 -4.697261,1.386719 92.499999,92.499999 0 0 1 4.697261,-1.386719 z m 49.10938,0.419922 a 92.499999,92.499999 0 0 1 6.25976,2.027344 92.500003,92.500003 0 0 0 -6.25976,-2.027344 z m 8.64258,2.929687 a 92.499999,92.499999 0 0 1 6.22461,2.728516 92.500003,92.500003 0 0 0 -6.22461,-2.728516 z M 93.460938,42.404297 A 92.500003,92.500003 0 0 0 86.308594,45.75 92.499999,92.499999 0 0 1 93.460938,42.404297 Z m 77.207032,3.492187 a 92.499999,92.499999 0 0 1 6.0625,3.414063 92.500003,92.500003 0 0 0 -6.0625,-3.414063 z m -88.382814,2.09375 a 92.500003,92.500003 0 0 0 -3.984375,2.373047 92.499999,92.499999 0 0 1 3.984375,-2.373047 z m 96.306644,2.494141 a 92.499999,92.499999 0 0 1 5.86132,4.123047 92.500003,92.500003 0 0 0 -5.86132,-4.123047 z M 74.505859,53.005859 a 92.500003,92.500003 0 0 0 -3.701171,2.740235 92.499999,92.499999 0 0 1 3.701171,-2.740235 z M 186,55.8125 a 92.499999,92.499999 0 0 1 5.55859,4.808594 A 92.500003,92.500003 0 0 0 186,55.8125 Z M 67.269531,58.771484 a 92.500003,92.500003 0 0 0 -3.40039,3.089844 92.499999,92.499999 0 0 1 3.40039,-3.089844 z M 192.88672,61.890625 A 92.499999,92.499999 0 0 1 198,67.292969 92.500003,92.500003 0 0 0 192.88672,61.890625 Z m -52.30664,3.294922 a 99.999999,99.999999 0 0 0 -34.8418,7.310547 99.999999,99.999999 0 0 0 -62.070311,90.103516 99.999999,99.999999 0 0 0 107.398441,21.00781 99.999999,99.999999 0 0 0 62.0664,-90.103514 99.999999,99.999999 0 0 0 -72.55273,-28.318359 z m -79.89258,0.0059 a 92.500003,92.500003 0 0 0 -3.111328,3.453125 92.499999,92.499999 0 0 1 3.111328,-3.453125 z m 138.46094,3.441406 a 92.499999,92.499999 0 0 1 4.60156,5.955079 92.500003,92.500003 0 0 0 -4.60156,-5.955079 z M 54.748047,72.267578 a 92.500003,92.500003 0 0 0 -2.746094,3.740234 92.499999,92.499999 0 0 1 2.746094,-3.740234 z m 149.957033,3.69336 a 92.499999,92.499999 0 0 1 4.02344,6.449218 92.500003,92.500003 0 0 0 -4.02344,-6.449218 z M 49.533203,79.921875 a 92.500003,92.500003 0 0 0 -2.335937,3.958984 92.499999,92.499999 0 0 1 2.335937,-3.958984 z m 159.982417,3.904297 a 92.499999,92.499999 0 0 1 3.73047,7.568359 99.999999,99.999999 0 0 0 0.004,-0.06055 92.500003,92.500003 0 0 0 -3.73438,-7.507812 z M 45.123047,88.037109 a 92.500003,92.500003 0 0 0 -1.9375,4.181641 92.499999,92.499999 0 0 1 1.9375,-4.181641 z m -3.570313,8.490235 a 92.500003,92.500003 0 0 0 -1.519531,4.390626 92.499999,92.499999 0 0 1 1.519531,-4.390626 z M 216.66211,100.5625 a 92.499999,92.499999 0 0 1 1.21484,4.44336 92.500003,92.500003 0 0 0 -1.21484,-4.44336 z m -113.80859,0.35547 a 35.750006,35.750006 0 0 0 0.99218,24.2168 35.750006,35.750006 0 0 0 46.60547,19.59765 35.750006,35.750006 0 0 0 9.92969,-6.16015 35.750002,35.750002 0 0 1 -20.58984,22.38867 35.750002,35.750002 0 0 1 -46.605473,-19.59766 35.750002,35.750002 0 0 1 9.667973,-40.44531 z m -64.015629,4.4375 a 92.500003,92.500003 0 0 0 -1.070313,4.50391 92.499999,92.499999 0 0 1 1.070313,-4.50391 z m 180.128909,4.1582 a 92.499999,92.499999 0 0 1 0.76562,4.56055 92.500003,92.500003 0 0 0 -0.76562,-4.56055 z M 37.015625,114.4375 a 92.500003,92.500003 0 0 0 -0.611328,4.55469 92.499999,92.499999 0 0 1 0.611328,-4.55469 z m 183.347655,4.19727 a 92.499999,92.499999 0 0 1 0.3086,4.64257 92.500003,92.500003 0 0 0 -0.3086,-4.64257 z m -184.249999,4.99609 a 92.500003,92.500003 0 0 0 -0.154297,4.60352 92.499999,92.499999 0 0 1 0.154297,-4.60352 z m 184.730469,4.23828 a 92.499999,92.499999 0 0 1 -0.1543,4.60352 92.500003,92.500003 0 0 0 0.1543,-4.60352 z m -184.712891,4.95703 a 92.500003,92.500003 0 0 0 0.310547,4.64258 92.499999,92.499999 0 0 1 -0.310547,-4.64258 z m 184.267581,4.28516 a 92.499999,92.499999 0 0 1 -0.61133,4.55469 92.500003,92.500003 0 0 0 0.61133,-4.55469 z M 37.072266,142.0293 a 92.500003,92.500003 0 0 0 0.765625,4.56054 92.499999,92.499999 0 0 1 -0.765625,-4.56054 z m 181.962894,4.21484 a 92.499999,92.499999 0 0 1 -1.07032,4.50391 92.500003,92.500003 0 0 0 1.07032,-4.50391 z m -180.107426,4.85352 a 92.500003,92.500003 0 0 0 1.212891,4.44336 92.499999,92.499999 0 0 1 -1.212891,-4.44336 z m 177.841796,4.08789 a 92.499999,92.499999 0 0 1 -1.51758,4.39062 92.500003,92.500003 0 0 0 1.51758,-4.39062 z m -3.15234,8.69922 a 92.499999,92.499999 0 0 1 -1.93555,4.18164 92.500003,92.500003 0 0 0 1.93555,-4.18164 z m -170.058596,0.82421 a 99.999999,99.999999 0 0 0 -0.0059,0.0606 99.999999,99.999999 0 0 0 0.002,0.002 92.500003,92.500003 0 0 0 3.732421,7.50586 92.499999,92.499999 0 0 1 -3.728515,-7.56836 z m 166.048826,7.51368 a 92.499999,92.499999 0 0 1 -2.33594,3.95898 92.500003,92.500003 0 0 0 2.33594,-3.95898 z m -161.531248,1.4707 a 92.500003,92.500003 0 0 0 4.023437,6.44922 92.499999,92.499999 0 0 1 -4.023437,-6.44922 z m 156.724608,6.40234 a 92.499999,92.499999 0 0 1 -2.74609,3.74024 92.500003,92.500003 0 0 0 2.74609,-3.74024 z m -151.748046,1.41992 a 92.500003,92.500003 0 0 0 4.603516,5.95508 92.499999,92.499999 0 0 1 -4.603516,-5.95508 z m 146.175786,5.94336 a 92.499999,92.499999 0 0 1 -3.11329,3.45313 92.500003,92.500003 0 0 0 3.11329,-3.45313 z m -140.423832,1.35157 a 92.500003,92.500003 0 0 0 5.111328,5.40429 92.499999,92.499999 0 0 1 -5.111328,-5.40429 z m 134.130862,5.43164 a 92.499999,92.499999 0 0 1 -3.40235,3.08984 92.500003,92.500003 0 0 0 3.40235,-3.08984 z m -127.691409,1.24023 a 92.500003,92.500003 0 0 0 5.560547,4.8086 92.499999,92.499999 0 0 1 -5.560547,-4.8086 z m 120.753909,4.875 a 92.499999,92.499999 0 0 1 -3.69922,2.74024 92.500003,92.500003 0 0 0 3.69922,-2.74024 z m -113.646488,1.13867 a 92.500003,92.500003 0 0 0 5.861329,4.12305 92.499999,92.499999 0 0 1 -5.861329,-4.12305 z m 106.152348,4.24414 a 92.499999,92.499999 0 0 1 -3.98438,2.37305 92.500003,92.500003 0 0 0 3.98438,-2.37305 z m -98.431644,1.05274 a 92.500003,92.500003 0 0 0 6.0625,3.41406 92.499999,92.499999 0 0 1 -6.0625,-3.41406 z m 90.423824,3.5625 a 92.499999,92.499999 0 0 1 -7.15429,3.34375 92.500003,92.500003 0 0 0 7.15429,-3.34375 z m -82.251949,0.9043 a 92.500003,92.500003 0 0 0 6.224609,2.72851 92.499999,92.499999 0 0 1 -6.224609,-2.72851 z m 8.607421,3.63085 a 92.500003,92.500003 0 0 0 6.259768,2.02735 92.499999,92.499999 0 0 1 -6.259768,-2.02735 z m 8.943358,2.74805 a 92.500003,92.500003 0 0 0 6.19727,1.33985 92.499999,92.499999 0 0 1 -6.19727,-1.33985 z m 9.17774,1.82813 a 92.500003,92.500003 0 0 0 6.05468,0.68945 92.499999,92.499999 0 0 1 -6.05468,-0.68945 z m 9.33398,0.89453 a 92.500003,92.500003 0 0 0 5.82031,0.0742 92.499999,92.499999 0 0 1 -5.82031,-0.0742 z"
       transform="matrix(0.22803924,0.09157677,-0.09157677,0.22803924,16.418876,222.1876)"
       id="path62030-5"
       inkscape:connector-curvature="0" />
    <path
       inkscape:connector-curvature="0"
       style="display:inline;opacity:1;fill:#727272;fill-opacity:1;stroke:none;stroke-width:0.35263702;stroke-linecap:square;stroke-linejoin:miter;stroke-miterlimit:0;stroke-dasharray:none;stroke-dashoffset:0;stroke-opacity:0;paint-order:stroke fill markers"
       d="m 42.039558,241.92187 a 22.73096,22.73096 0 0 1 1.320923,0.55008 22.730961,22.730961 0 0 0 -1.320923,-0.55008 z m -0.8208,-0.29498 a 22.730961,22.730961 0 0 0 -1.30374,-0.39582 22.73096,22.73096 0 0 1 1.30374,0.39582 z m 2.870562,1.1926 a 22.73096,22.73096 0 0 1 1.317306,0.71107 22.730961,22.730961 0 0 0 -1.317306,-0.71107 z m -5.094667,-1.81836 a 22.730961,22.730961 0 0 0 -1.257599,-0.24797 22.73096,22.73096 0 0 1 1.257599,0.24797 z m 7.046929,2.9137 a 22.73096,22.73096 0 0 1 1.290519,0.87306 22.730961,22.730961 0 0 0 -1.290519,-0.87306 z m -9.323481,-3.3097 a 22.730961,22.730961 0 0 0 -1.19815,-0.11387 22.73096,22.73096 0 0 1 1.19815,0.11387 z m 11.16041,4.59305 a 22.73096,22.73096 0 0 1 1.241815,1.03556 22.730961,22.730961 0 0 0 -1.241815,-1.03556 z m 1.702558,1.45954 a 22.73096,22.73096 0 0 1 1.169588,1.19223 22.730961,22.730961 0 0 0 -1.169588,-1.19223 z M 33.848387,240.4163 a 22.730961,22.730961 0 0 0 -1.937404,0.10798 22.73096,22.73096 0 0 1 1.937404,-0.10798 z m 17.286431,7.86673 a 22.73096,22.73096 0 0 1 1.069838,1.33372 22.730961,22.730961 0 0 0 -1.069838,-1.33372 z m -20.34649,-7.61636 a 22.730961,22.730961 0 0 0 -1.125911,0.17627 22.73096,22.73096 0 0 1 1.125911,-0.17627 z m 21.733288,9.38821 a 22.73096,22.73096 0 0 1 0.959036,1.47699 22.730961,22.730961 0 0 0 -0.959036,-1.47699 z m -23.966589,-8.95686 a 22.730961,22.730961 0 0 0 -1.094954,0.28595 22.73096,22.73096 0 0 1 1.094954,-0.28595 z m 25.168018,10.85031 a 22.73096,22.73096 0 0 1 0.827223,1.60557 22.730961,22.730961 0 0 0 -0.827223,-1.60557 z M 26.376863,241.75014 a 22.730961,22.730961 0 0 0 -1.05838,0.3932 22.73096,22.73096 0 0 1 1.05838,-0.3932 z m 28.36001,12.2149 a 22.73096,22.73096 0 0 1 0.671298,1.7002 22.730961,22.730961 0 0 0 -0.671298,-1.7002 z m -12.229705,-4.03871 a 24.574011,24.574011 0 0 0 -8.614775,-1.52361 24.574011,24.574011 0 0 0 -22.405856,14.86295 24.574011,24.574011 0 0 0 22.567231,14.62581 24.574011,24.574011 0 0 0 22.404964,-14.8633 24.574011,24.574011 0 0 0 -13.951564,-13.10185 z m -18.219337,-7.31458 a 22.730961,22.730961 0 0 0 -1.025731,0.50253 22.73096,22.73096 0 0 1 1.025731,-0.50253 z m 31.259376,13.46459 a 22.73096,22.73096 0 0 1 0.503986,1.7794 22.730961,22.730961 0 0 0 -0.503986,-1.7794 z M 22.285393,243.68147 a 22.730961,22.730961 0 0 0 -0.968735,0.60145 22.73096,22.73096 0 0 1 0.968735,-0.60145 z m 33.857863,14.57482 a 22.73096,22.73096 0 0 1 0.326902,1.83913 22.730961,22.730961 0 0 0 -0.326902,-1.83913 z M 20.395247,244.94941 a 22.730961,22.730961 0 0 0 -0.895235,0.68888 22.73096,22.73096 0 0 1 0.895235,-0.68888 z m 36.124727,15.541 a 22.73096,22.73096 0 0 1 0.15761,2.06751 24.574011,24.574011 0 0 0 0.0065,-0.0134 22.730961,22.730961 0 0 0 -0.164045,-2.05406 z M 18.646391,246.39613 a 22.730961,22.730961 0 0 0 -0.824766,0.77615 22.73096,22.73096 0 0 1 0.824766,-0.77615 z m -1.591678,1.60914 a 22.730961,22.730961 0 0 0 -0.748595,0.86208 22.73096,22.73096 0 0 1 0.748595,-0.86208 z m 39.562281,16.95613 a 22.73096,22.73096 0 0 1 -0.129874,1.12451 22.730961,22.730961 0 0 0 0.129874,-1.12451 z M 30.6316,254.62029 a 8.7852106,8.7852106 0 0 0 -1.99144,5.61323 8.7852106,8.7852106 0 0 0 8.833187,8.73701 8.7852106,8.7852106 0 0 0 2.828484,-0.49543 8.7852094,8.7852094 0 0 1 -6.745573,3.21995 8.7852094,8.7852094 0 0 1 -8.833185,-8.73701 8.7852094,8.7852094 0 0 1 5.908527,-8.33775 z m -15.004287,-4.85083 a 22.730961,22.730961 0 0 0 -0.656523,0.92905 22.73096,22.73096 0 0 1 0.656523,-0.92905 z m 40.695667,17.44386 a 22.73096,22.73096 0 0 1 -0.243047,1.11008 22.730961,22.730961 0 0 0 0.243047,-1.11008 z M 14.380064,251.67363 a 22.730961,22.730961 0 0 0 -0.556509,0.98266 22.73096,22.73096 0 0 1 0.556509,-0.98266 z m 41.426087,17.74754 a 22.73096,22.73096 0 0 1 -0.354776,1.08694 22.730961,22.730961 0 0 0 0.354776,-1.08694 z M 13.332395,253.68745 a 22.730961,22.730961 0 0 0 -0.456758,1.03565 22.73096,22.73096 0 0 1 0.456758,-1.03565 z m 41.737669,17.88351 a 22.73096,22.73096 0 0 1 -0.456756,1.03565 22.730961,22.730961 0 0 0 0.456756,-1.03565 z M 12.494329,255.78594 a 22.730961,22.730961 0 0 0 -0.354335,1.08714 22.73096,22.73096 0 0 1 0.354335,-1.08714 z m 41.627817,17.85183 a 22.73096,22.73096 0 0 1 -0.556511,0.98266 22.730961,22.730961 0 0 0 0.556511,-0.98266 z M 11.866213,257.97084 a 22.730961,22.730961 0 0 0 -0.243047,1.11008 22.73096,22.73096 0 0 1 0.243047,-1.11008 z m 41.108698,17.62472 a 22.73096,22.73096 0 0 1 -0.656529,0.92905 22.730961,22.730961 0 0 0 0.656529,-0.92905 z M 11.458879,260.2087 a 22.730961,22.730961 0 0 0 -0.130322,1.12434 22.73096,22.73096 0 0 1 0.130322,-1.12434 z m 40.180557,17.21838 a 22.73096,22.73096 0 0 1 -0.748148,0.86226 22.730961,22.730961 0 0 0 0.748148,-0.86226 z m -1.515505,1.69508 a 22.73096,22.73096 0 0 1 -0.824321,0.77632 22.730961,22.730961 0 0 0 0.824321,-0.77632 z M 11.268419,263.73668 a 24.574011,24.574011 0 0 0 -0.0069,0.0132 24.574011,24.574011 0 0 0 2.72e-4,6.4e-4 22.730961,22.730961 0 0 0 0.163777,2.05343 22.73096,22.73096 0 0 1 -0.157162,-2.06733 z m 37.177569,16.91963 a 22.73096,22.73096 0 0 1 -0.895237,0.68889 22.730961,22.730961 0 0 0 0.895237,-0.68889 z M 11.475843,266.19919 a 22.730961,22.730961 0 0 0 0.326901,1.83913 22.73096,22.73096 0 0 1 -0.326901,-1.83913 z m 35.153056,15.81231 a 22.73096,22.73096 0 0 1 -0.968736,0.60145 22.730961,22.730961 0 0 0 0.968736,-0.60145 z M 11.894357,268.4387 a 22.730961,22.730961 0 0 0 0.504433,1.77958 22.73096,22.73096 0 0 1 -0.504433,-1.77958 z m 32.78954,14.74163 a 22.73096,22.73096 0 0 1 -1.026179,0.50234 22.730961,22.730961 0 0 0 1.026179,-0.50234 z M 12.537981,270.62898 a 22.730961,22.730961 0 0 0 0.670678,1.70047 22.73096,22.73096 0 0 1 -0.670678,-1.70047 z m 30.089689,13.5219 a 22.73096,22.73096 0 0 1 -1.058826,0.39303 22.730961,22.730961 0 0 0 1.058826,-0.39303 z M 13.395443,272.74012 a 22.730961,22.730961 0 0 0 0.827666,1.60577 22.73096,22.73096 0 0 1 -0.827666,-1.60577 z m 27.09019,12.16996 a 22.73096,22.73096 0 0 1 -1.094507,0.28612 22.730961,22.730961 0 0 0 1.094507,-0.28612 z M 14.4655,274.76236 a 22.730961,22.730961 0 0 0 0.959037,1.47698 22.73096,22.73096 0 0 1 -0.959037,-1.47698 z m 23.818237,10.68893 a 22.73096,22.73096 0 0 1 -1.125912,0.17626 22.730961,22.730961 0 0 0 1.125912,-0.17626 z m -22.542686,-8.774 a 22.730961,22.730961 0 0 0 1.069841,1.33372 22.73096,22.73096 0 0 1 -1.069841,-1.33372 z m 20.293937,9.09312 a 22.73096,22.73096 0 0 1 -1.937667,0.10737 22.730961,22.730961 0 0 0 1.937667,-0.10737 z m -18.839484,-7.32616 a 22.730961,22.730961 0 0 0 1.169587,1.19224 22.73096,22.73096 0 0 1 -1.169587,-1.19224 z m 1.630329,1.61621 a 22.730961,22.730961 0 0 0 1.241816,1.03557 22.73096,22.73096 0 0 1 -1.241816,-1.03557 z m 1.787779,1.44569 a 22.730961,22.730961 0 0 0 1.290521,0.87306 22.73096,22.73096 0 0 1 -1.290521,-0.87306 z m 1.925471,1.25734 a 22.730961,22.730961 0 0 0 1.317566,0.71169 22.73096,22.73096 0 0 1 -1.317566,-0.71169 z m 2.046595,1.05876 a 22.730961,22.730961 0 0 0 1.320475,0.5499 22.73096,22.73096 0 0 1 -1.320475,-0.5499 z"
       id="path62030" />
    <path
       style="opacity:1;fill:#727272;fill-opacity:1;stroke:none;stroke-width:1.03274012;stroke-linecap:square;stroke-linejoin:miter;stroke-miterlimit:4;stroke-dasharray:none;stroke-dashoffset:0;stroke-opacity:1;paint-order:stroke fill markers"
       d="m 44.840541,263.18875 v 24.40832 h 0.04343 l 5.746985,-5.26618 5.790411,5.19255 v -24.33469 z"
       id="rect2210"
       inkscape:connector-curvature="0" />
  </g>
  <g
     inkscape:groupmode="layer"
     id="layer3"
     inkscape:label="Stars"
     style="display:none;opacity:1">
    <path
       style="opacity:0;fill:#161616;fill-opacity:1;stroke:none;stroke-width:0.26458332px;stroke-linecap:butt;stroke-linejoin:miter;stroke-opacity:1"
       d="M 0,67.733332 67.73333,2.5333333e-6 V 67.733332 Z"
       id="path1442"
       inkscape:connector-curvature="0" />
  </g>
  <g
     inkscape:groupmode="layer"
     id="layer4"
     inkscape:label="Cutout"
     style="display:inline">
    <path
       inkscape:connector-curvature="0"
       style="opacity:1;fill:#ffffff;fill-opacity:1;stroke:none;stroke-width:0.22442625;stroke-linecap:square;stroke-linejoin:miter;stroke-miterlimit:0;stroke-dasharray:none;stroke-dashoffset:0;stroke-opacity:0;paint-order:stroke fill markers"
       d="M -2e-6,0 V 33.866667 A 33.866664,33.866664 0 0 1 33.866665,0 Z M 33.866665,0 A 33.866664,33.866664 0 0 1 67.733331,33.866667 V 0 Z M 67.733331,33.866667 A 33.866664,33.866664 0 0 1 33.866665,67.733333 H 67.733331 Z M 33.866665,67.733333 A 33.866664,33.866664 0 0 1 -2e-6,33.866667 v 33.866666 z"
       id="rect7697" />
  </g>
  <g
     inkscape:groupmode="layer"
     id="layer5"
     inkscape:label="Stars 1"
     style="display:inline;filter:url(#filter3809)">
    <path
       style="display:inline;opacity:1;fill:#575757;fill-opacity:1;fill-rule:nonzero;stroke:none;stroke-width:3.2050395;stroke-linecap:square;stroke-linejoin:miter;stroke-miterlimit:4;stroke-dasharray:none;stroke-dashoffset:0;stroke-opacity:0.68709675;paint-order:stroke fill markers;filter:url(#filter3637-5)"
       d="M 3.594141,7.5523438 V 83.075781 h 0.38477 l 17.58593,-16.115234 17.97071,16.115234 V 7.5523438 Z"
       id="rect2210-3-3-1"
       inkscape:connector-curvature="0"
       transform="matrix(-0.33272813,0,0,-0.64703711,57.957774,63.708543)" />
  </g>
</svg>
